# xmcd
#
# Track frame offsets:
#	150
#	12757
#	32197
#	46195
#	57467
#	69942
#	86360
#	101515
#	120455
#	133187
#	149795
#	166740
#	180025
#	194172
#	207650
#	222055
#
# Disc length: 3188 seconds
#
# Revision: 3
# Processed by: cddbd v1.5.1PL2 Copyright (c) Steve Scherf et al.
# Submitted via: audiograbber 1.83.01
#
DISCID=e30c7210
DTITLE=Various Artist - KB922
DYEAR=1900
DGENRE=Country
TTITLE0=Patsy Cline - Crazy
TTITLE1=Alabama - Angels Among Us
TTITLE2=Dolly Parton - I Will Always Love You
TTITLE3=Willie Nelson - On The Road Again
TTITLE4=Tammy Wynette - Stand By Your Man
TTITLE5=Randy Travis - Forever And Ever Amen
TTITLE6=Steve Wariner - Small Town Girl
TTITLE7=The Judds - Grandpa
TTITLE8=Hank Williams Jr - Born To Boogie
TTITLE9=Anne Murray - You Needed Me
TTITLE10=Kenny Rogers - The Gambler
TTITLE11=Patsy Cline - I Fall To Pieces
TTITLE12=Ronnie Milsap - Snap Your Fingers
TTITLE13=Emmylou Harris - Two More Bottles Of Wine
TTITLE14=George Strait - Ocean Front Property
TTITLE15=Tanya Tucker - Some Kind Of Trouble
EXTD=Karaoke CD+G Disc
EXTT0=
EXTT1=
EXTT2=
EXTT3=
EXTT4=
EXTT5=
EXTT6=
EXTT7=
EXTT8=
EXTT9=
EXTT10=
EXTT11=
EXTT12=
EXTT13=
EXTT14=
EXTT15=
PLAYORDER=
